HIERARCHY
ROOT pelvis
{
	OFFSET 0.003123 -0.351407 0.012037
	CHANNELS 6 Xposition Yposition Zposition Zrotation Yrotation Xrotation 
	JOINT left_hip
	{
		OFFSET 0.058189 -0.092763 -0.026001
		CHANNELS 3 Zrotation Yrotation Xrotation
		JOINT left_knee
		{
			OFFSET 0.054695 -0.378753 -0.009396
			CHANNELS 3 Zrotation Yrotation Xrotation
			JOINT left_ankle
			{
				OFFSET -0.043453 -0.403059 -0.031876
				CHANNELS 3 Zrotation Yrotation Xrotation
				JOINT left_foot
				{
					OFFSET 0.047257 -0.057997 0.118216
					CHANNELS 3 Zrotation Yrotation Xrotation
					End Site
					{
						OFFSET 0.000000 0.000000 0.000000
					}
				}
			}
		}
	}
	JOINT right_hip
	{
		OFFSET -0.063267 -0.103908 -0.021250
		CHANNELS 3 Zrotation Yrotation Xrotation
		JOINT right_knee
		{
			OFFSET -0.044210 -0.362380 -0.016824
			CHANNELS 3 Zrotation Yrotation Xrotation
			JOINT right_ankle
			{
				OFFSET 0.015417 -0.410728 -0.020192
				CHANNELS 3 Zrotation Yrotation Xrotation
				JOINT right_foot
				{
					OFFSET -0.038812 -0.058328 0.119049
					CHANNELS 3 Zrotation Yrotation Xrotation
					End Site
					{
						OFFSET 0.000000 0.000000 0.000000
					}
				}
			}
		}
	}
	JOINT spine_1
	{
		OFFSET -0.002763 0.109891 -0.027618
		CHANNELS 3 Zrotation Yrotation Xrotation
		JOINT spine_2
		{
			OFFSET 0.009448 0.131853 -0.005940
			CHANNELS 3 Zrotation Yrotation Xrotation
			JOINT spine_3
			{
				OFFSET -0.011330 0.052235 0.028447
				CHANNELS 3 Zrotation Yrotation Xrotation
				JOINT neck
				{
					OFFSET -0.012164 0.165167 -0.031615
					CHANNELS 3 Zrotation Yrotation Xrotation
					JOINT head
					{
						OFFSET 0.024783 0.160452 0.020737
						CHANNELS 3 Zrotation Yrotation Xrotation
						End Site
						{
							OFFSET 0.000000 0.000000 0.000000
						}
					}
				}
				JOINT left_collar
				{
					OFFSET 0.046364 0.084944 -0.007220
					CHANNELS 3 Zrotation Yrotation Xrotation
					JOINT left_shoulder
					{
						OFFSET 0.119239 0.057728 -0.015461
						CHANNELS 3 Zrotation Yrotation Xrotation
						JOINT left_elbow
						{
							OFFSET 0.254123 -0.072151 -0.042459
							CHANNELS 3 Zrotation Yrotation Xrotation
							JOINT left_wrist
							{
								OFFSET 0.251987 0.023221 -0.002472
								CHANNELS 3 Zrotation Yrotation Xrotation
								JOINT left_index_1
								{
									OFFSET 0.101902 -0.008688 0.019351
									CHANNELS 3 Zrotation Yrotation Xrotation
									JOINT left_index_2
									{
										OFFSET 0.030149 -0.011154 0.001151
										CHANNELS 3 Zrotation Yrotation Xrotation
										JOINT left_index_3
										{
											OFFSET 0.006504 -0.021577 -0.002433
											CHANNELS 3 Zrotation Yrotation Xrotation
											End Site
											{
												OFFSET 0.000000 0.000000 0.000000
											}
										}
									}
								}
								JOINT left_middle_1
								{
									OFFSET 0.109398 -0.006328 -0.003981
									CHANNELS 3 Zrotation Yrotation Xrotation
									JOINT left_middle_2
									{
										OFFSET 0.026472 -0.015218 -0.004641
										CHANNELS 3 Zrotation Yrotation Xrotation
										JOINT left_middle_3
										{
											OFFSET 0.005022 -0.023347 -0.001911
											CHANNELS 3 Zrotation Yrotation Xrotation
											End Site
											{
												OFFSET 0.000000 0.000000 0.000000
											}
										}
									}
								}
								JOINT left_pinky_1
								{
									OFFSET 0.084047 -0.014539 -0.043750
									CHANNELS 3 Zrotation Yrotation Xrotation
									JOINT left_pinky_2
									{
										OFFSET 0.012124 -0.014448 -0.005375
										CHANNELS 3 Zrotation Yrotation Xrotation
										JOINT left_pinky_3
										{
											OFFSET 0.003798 -0.018853 0.000167
											CHANNELS 3 Zrotation Yrotation Xrotation
											End Site
											{
												OFFSET 0.000000 0.000000 0.000000
											}
										}
									}
								}
								JOINT left_ring_1
								{
									OFFSET 0.097444 -0.009268 -0.027345
									CHANNELS 3 Zrotation Yrotation Xrotation
									JOINT left_ring_2
									{
										OFFSET 0.023561 -0.016057 -0.001895
										CHANNELS 3 Zrotation Yrotation Xrotation
										JOINT left_ring_3
										{
											OFFSET 0.004257 -0.023548 0.000814
											CHANNELS 3 Zrotation Yrotation Xrotation
											End Site
											{
												OFFSET 0.000000 0.000000 0.000000
											}
										}
									}
								}
								JOINT left_thumb_1
								{
									OFFSET 0.040636 -0.017977 0.025611
									CHANNELS 3 Zrotation Yrotation Xrotation
									JOINT left_thumb_2
									{
										OFFSET 0.021637 -0.017639 0.011623
										CHANNELS 3 Zrotation Yrotation Xrotation
										JOINT left_thumb_3
										{
											OFFSET 0.024002 -0.008356 0.006548
											CHANNELS 3 Zrotation Yrotation Xrotation
											End Site
											{
												OFFSET 0.000000 0.000000 0.000000
											}
										}
									}
								}
							}
						}
					}
				}
				JOINT right_collar
				{
					OFFSET -0.047695 0.084339 -0.013400
					CHANNELS 3 Zrotation Yrotation Xrotation
					JOINT right_shoulder
					{
						OFFSET -0.102578 0.053524 -0.012669
						CHANNELS 3 Zrotation Yrotation Xrotation
						JOINT right_elbow
						{
							OFFSET -0.271150 -0.036492 -0.026467
							CHANNELS 3 Zrotation Yrotation Xrotation
							JOINT right_wrist
							{
								OFFSET -0.249267 -0.004533 -0.015325
								CHANNELS 3 Zrotation Yrotation Xrotation
								JOINT right_index_1
								{
									OFFSET -0.099881 -0.011783 0.019600
									CHANNELS 3 Zrotation Yrotation Xrotation
									JOINT right_index_2
									{
										OFFSET -0.030148 -0.011154 0.001151
										CHANNELS 3 Zrotation Yrotation Xrotation
										JOINT right_index_3
										{
											OFFSET -0.006505 -0.021577 -0.002432
											CHANNELS 3 Zrotation Yrotation Xrotation
											End Site
											{
												OFFSET 0.000000 0.000000 0.000000
											}
										}
									}
								}
								JOINT right_middle_1
								{
									OFFSET -0.107376 -0.009422 -0.003734
									CHANNELS 3 Zrotation Yrotation Xrotation
									JOINT right_middle_2
									{
										OFFSET -0.026472 -0.015218 -0.004641
										CHANNELS 3 Zrotation Yrotation Xrotation
										JOINT right_middle_3
										{
											OFFSET -0.005022 -0.023347 -0.001911
											CHANNELS 3 Zrotation Yrotation Xrotation
											End Site
											{
												OFFSET 0.000000 0.000000 0.000000
											}
										}
									}
								}
								JOINT right_pinky_1
								{
									OFFSET -0.082027 -0.017634 -0.043503
									CHANNELS 3 Zrotation Yrotation Xrotation
									JOINT right_pinky_2
									{
										OFFSET -0.012123 -0.014448 -0.005374
										CHANNELS 3 Zrotation Yrotation Xrotation
										JOINT right_pinky_3
										{
											OFFSET -0.003798 -0.018852 0.000167
											CHANNELS 3 Zrotation Yrotation Xrotation
											End Site
											{
												OFFSET 0.000000 0.000000 0.000000
											}
										}
									}
								}
								JOINT right_ring_1
								{
									OFFSET -0.095423 -0.012362 -0.027099
									CHANNELS 3 Zrotation Yrotation Xrotation
									JOINT right_ring_2
									{
										OFFSET -0.023561 -0.016057 -0.001895
										CHANNELS 3 Zrotation Yrotation Xrotation
										JOINT right_ring_3
										{
											OFFSET -0.004257 -0.023548 0.000816
											CHANNELS 3 Zrotation Yrotation Xrotation
											End Site
											{
												OFFSET 0.000000 0.000000 0.000000
											}
										}
									}
								}
								JOINT right_thumb_1
								{
									OFFSET -0.038613 -0.021074 0.025861
									CHANNELS 3 Zrotation Yrotation Xrotation
									JOINT right_thumb_2
									{
										OFFSET -0.021636 -0.017639 0.011623
										CHANNELS 3 Zrotation Yrotation Xrotation
										JOINT right_thumb_3
										{
											OFFSET -0.024004 -0.008353 0.006547
											CHANNELS 3 Zrotation Yrotation Xrotation
											End Site
											{
												OFFSET 0.000000 0.000000 0.000000
											}
										}
									}
								}
							}
						}
					}
				}
			}
		}
	}
}
MOTION
Frames: 5
Frame Time: 0.050000
0.046196 0.922083 0.108818 -4.074179 -3.439460 -8.912307 9.632352 0.714493 11.030841 -6.072514 0.475479 1.396570 6.466733 10.252570 -4.663170 0.000000 0.000000 0.000000 -5.852057 -0.041356 3.732825 4.336647 -0.162065 10.251803 -4.254202 -7.774258 -1.060753 0.000000 0.000000 0.000000 -2.612893 -0.600492 8.037621 -7.895806 0.153740 -13.959681 7.801281 -2.284966 27.095465 2.493181 -0.618464 0.643971 0.000000 0.000000 0.000000 -2.937069 -5.907511 2.948021 -49.241525 -19.179918 -5.466088 173.874855 -79.882018 -156.983273 5.664392 2.761827 4.973461 -13.779746 7.280781 2.137078 -9.542099 3.934232 6.154633 0.000000 0.000000 0.000000 -14.192214 1.051422 -2.081616 -23.301475 4.253294 3.847979 0.000000 0.000000 0.000000 16.805639 -13.988840 -11.765850 -31.183375 -2.793051 -5.799361 0.000000 0.000000 0.000000 -8.097905 -3.210977 -2.479600 -33.114352 -0.569052 -0.532933 0.000000 0.000000 0.000000 5.651919 18.576321 15.677910 -6.360877 -6.817315 -0.073210 0.000000 0.000000 0.000000 -6.449249 4.652891 2.905583 39.387740 31.398430 0.953606 -121.742061 51.167419 -78.685563 -9.820375 -0.662280 -13.683931 5.810968 0.165636 0.232170 -6.330196 -0.139688 1.660537 0.000000 0.000000 0.000000 6.687849 7.880702 -4.671314 13.774446 0.557218 -2.303048 0.000000 0.000000 0.000000 -13.496601 12.650341 -15.963304 0.920238 -0.097956 0.345533 0.000000 0.000000 0.000000 6.791877 9.281053 -5.793081 3.523962 1.616321 -5.336678 0.000000 0.000000 0.000000 -19.912075 -21.717056 9.660284 16.188445 10.972620 1.250708 0.000000 0.000000 0.000000 
0.045018 0.922244 0.107498 -4.185171 -4.016915 -9.145588 9.926672 0.740110 11.380570 -6.281615 0.514298 1.282973 6.545442 10.608480 -4.430464 0.000000 0.000000 0.000000 -5.914399 -0.019124 3.583322 4.755190 -0.204737 10.666154 -4.042697 -7.296265 -1.135721 0.000000 0.000000 0.000000 -2.350225 -0.623795 8.345913 -8.108120 0.215378 -13.959998 8.089300 -2.078875 27.532235 2.828231 -0.533430 -0.279174 0.000000 0.000000 0.000000 -2.317383 -6.517698 3.261012 -49.612000 -19.834490 -5.322132 164.438159 -80.461101 -146.075090 4.340221 2.144679 4.455431 -16.999438 6.020809 1.745800 -16.857056 5.538839 6.066818 0.000000 0.000000 0.000000 -18.777597 0.754703 -3.001743 -27.361842 4.099165 2.149260 0.000000 0.000000 0.000000 13.472323 -14.101019 -12.808399 -37.515764 -4.407800 -7.969078 0.000000 0.000000 0.000000 -11.646370 -4.372691 -3.259089 -35.246235 -0.918588 -1.083405 0.000000 0.000000 0.000000 3.586599 17.127266 14.726249 -4.875909 -7.001624 -0.619899 0.000000 0.000000 0.000000 -7.101319 4.230108 2.769484 40.261475 33.051338 1.402006 -120.187759 51.729335 -77.601918 -9.747667 0.496449 -13.544254 4.388169 0.217239 0.133889 5.222136 -0.482971 0.523279 0.000000 0.000000 0.000000 8.740210 7.156742 -4.419813 19.554238 1.317873 -4.072397 0.000000 0.000000 0.000000 -14.868623 12.400277 -15.341127 10.471736 1.250039 -2.835581 0.000000 0.000000 0.000000 5.741724 8.639356 -5.503916 14.231125 3.992235 -7.499560 0.000000 0.000000 0.000000 -14.912777 -19.700755 9.004153 8.863468 9.618116 -1.005921 0.000000 0.000000 0.000000 
0.044076 0.921519 0.106178 -4.250537 -3.878363 -8.893921 10.279109 0.648293 10.634096 -6.693346 0.522960 1.935083 6.619318 10.620892 -4.644887 0.000000 0.000000 0.000000 -6.017964 -0.007862 3.511914 5.204965 -0.267325 10.203935 -4.136164 -7.429862 -1.241113 0.000000 0.000000 0.000000 -2.259583 -0.581915 7.541618 -8.711867 0.527487 -13.765653 8.375374 -2.416745 28.504428 2.477337 -0.452203 -0.419899 0.000000 0.000000 0.000000 -1.926941 -6.848947 3.431697 -48.872645 -20.151838 -5.294432 161.157956 -79.858841 -141.839197 3.800237 1.856669 3.379825 -16.712756 6.924813 1.963454 -8.602528 2.310694 2.814878 0.000000 0.000000 0.000000 -17.798565 1.231063 -2.612262 -20.215654 2.689890 1.410190 0.000000 0.000000 0.000000 14.242715 -13.229293 -11.762940 -32.547912 -3.567368 -6.979893 0.000000 0.000000 0.000000 -11.285001 -3.619115 -2.860232 -29.870276 -1.300366 -1.898811 0.000000 0.000000 0.000000 3.168388 15.758190 13.314718 -5.591628 -5.976784 -0.127154 0.000000 0.000000 0.000000 -7.115836 4.577051 2.923509 40.455062 33.125951 1.375820 -119.781118 51.104157 -76.177291 -9.869509 0.864437 -13.829075 4.794158 -0.759805 0.397276 4.159768 -0.006861 -1.071563 0.000000 0.000000 0.000000 9.332188 7.324071 -4.512400 16.406493 1.564047 -5.038715 0.000000 0.000000 0.000000 -14.067304 13.082158 -16.597546 7.296271 0.920415 -2.352154 0.000000 0.000000 0.000000 6.410992 9.274042 -5.821730 10.451573 3.379078 -7.611662 0.000000 0.000000 0.000000 -16.715101 -20.558062 9.211030 11.887776 10.513754 -0.265945 0.000000 0.000000 0.000000 
0.042898 0.921196 0.107498 -4.406662 -3.882093 -9.382254 10.368929 0.698469 11.424474 -6.322045 0.495044 1.682249 6.636156 10.528708 -4.864436 0.000000 0.000000 0.000000 -5.879722 -0.093642 4.555236 5.339518 -0.285382 9.540231 -4.118393 -7.300620 -1.412260 0.000000 0.000000 0.000000 -2.389905 -0.645675 8.736736 -7.995371 0.121274 -14.156216 8.226688 -2.025191 27.759116 2.365589 -0.526900 0.213480 0.000000 0.000000 0.000000 -2.314145 -6.452541 3.220357 -48.494074 -19.391599 -5.466536 168.099191 -79.583080 -150.007574 4.325408 1.727739 3.704896 -14.435482 6.576487 1.968030 -5.578078 3.080607 6.237864 0.000000 0.000000 0.000000 -15.278104 0.901678 -2.302296 -18.259202 3.349996 3.774739 0.000000 0.000000 0.000000 16.542458 -14.152278 -12.632212 -29.433972 -0.791222 -1.314269 0.000000 0.000000 0.000000 -8.930681 -3.663637 -2.772713 -25.901035 -0.292535 0.235775 0.000000 0.000000 0.000000 7.205725 18.049771 14.585256 -8.210000 -7.646703 0.288487 0.000000 0.000000 0.000000 -6.821012 4.517721 2.861698 39.964495 33.543716 1.498076 -119.404986 51.612477 -76.487311 -10.124526 1.227874 -13.432151 4.135180 -0.691738 0.342162 11.005073 -0.720716 0.477380 0.000000 0.000000 0.000000 9.607058 6.666468 -4.239297 21.682424 1.660205 -4.813389 0.000000 0.000000 0.000000 -13.484989 12.553338 -15.667706 10.145291 1.291917 -3.039389 0.000000 0.000000 0.000000 6.888824 8.784401 -5.482678 15.169770 4.502492 -8.497623 0.000000 0.000000 0.000000 -16.630465 -21.553890 10.327525 8.795831 11.542817 -1.688243 0.000000 0.000000 0.000000 
0.041720 0.921922 0.108818 -4.074396 -4.520503 -9.627840 9.883548 0.831533 12.190759 -6.021929 0.504662 1.136376 6.655314 10.920471 -4.379924 0.000000 0.000000 0.000000 -5.938884 -0.080877 4.610786 4.855594 -0.212723 9.864678 -3.917005 -6.764941 -1.602242 0.000000 0.000000 0.000000 -2.435957 -0.643796 8.632174 -8.097539 0.196064 -13.938053 8.168019 -1.755393 27.682918 2.642288 -0.565369 0.119551 0.000000 0.000000 0.000000 -2.415467 -5.356793 2.658381 -48.376538 -19.473167 -5.422324 174.118440 -79.743626 -157.172474 4.614419 1.897429 4.183244 -14.555725 6.609450 1.961139 -7.658420 4.611618 8.894051 0.000000 0.000000 0.000000 -14.103952 0.623968 -2.219952 -21.181530 5.275781 7.272279 0.000000 0.000000 0.000000 17.271332 -13.858069 -11.767839 -29.931023 -0.208162 -0.033312 0.000000 0.000000 0.000000 -8.081954 -3.103641 -2.427390 -31.118860 1.270089 3.849328 0.000000 0.000000 0.000000 6.126904 18.396695 15.331645 -6.890877 -7.655335 -0.137133 0.000000 0.000000 0.000000 -6.683636 5.055609 3.102547 39.667624 33.854019 1.478702 -120.008821 51.370315 -76.949462 -10.325871 1.014157 -13.946362 5.864904 -0.174904 0.295033 16.387932 -1.410083 1.907663 0.000000 0.000000 0.000000 12.026902 7.357204 -4.602903 21.871862 1.460538 -4.345826 0.000000 0.000000 0.000000 -11.455175 12.629310 -16.218549 13.537840 1.320205 -2.677836 0.000000 0.000000 0.000000 9.123473 9.842663 -5.882562 15.310551 4.445216 -8.242135 0.000000 0.000000 0.000000 -16.589382 -21.195031 9.544832 10.656188 11.122752 -1.065393 0.000000 0.000000 0.000000 
